<svg id="Layer_1" data-name="Layer 1" xmlns="http://www.w3.org/2000/svg" viewBox="0 0 184 80"><defs><style>.cls-1{fill:#8f2948;}.cls-2{fill:#d34e56;}</style></defs><path class="cls-1" d="M70.18,51.16h-.91V35.21a4,4,0,0,0-4-4H60.16a4.24,4.24,0,0,0-2.12.48,3.59,3.59,0,0,0-1.16.93L46.27,47a6.77,6.77,0,0,0-1.19,2.1,7.22,7.22,0,0,0-.27,2V54a4,4,0,0,0,4,4H61.3v3.42a4,4,0,0,0,6.81,2.85,3.91,3.91,0,0,0,1.16-2.85V58h.91a3.34,3.34,0,0,0,2.41-1,3.27,3.27,0,0,0,1-2.44,3.41,3.41,0,0,0-3.41-3.42Zm-8.88,0H52L61.3,38.62Z"/><path class="cls-1" d="M98.39,48a11.17,11.17,0,0,0-2.84-2A21.33,21.33,0,0,0,92,44.64L88,43.41a9.05,9.05,0,0,1-1.71-.68,5.2,5.2,0,0,1-1-.73,2,2,0,0,1-.5-.8,3,3,0,0,1,1-3.24A4,4,0,0,1,88.35,37a4.84,4.84,0,0,1,1.6.27A8,8,0,0,1,91.4,38a9.17,9.17,0,0,1,1.23.86c.37.31.67.58.91.82a3.76,3.76,0,0,0,1.3.82,4.3,4.3,0,0,0,1.66.32A3.38,3.38,0,0,0,98.67,40a3.41,3.41,0,0,0,1-2.76,4.27,4.27,0,0,0-.82-2.42,7.89,7.89,0,0,0-2.3-2.12A13.45,13.45,0,0,0,93,31.22a16.82,16.82,0,0,0-4.51-.57,17.05,17.05,0,0,0-4.51.59,10.94,10.94,0,0,0-3.78,1.85,9,9,0,0,0-2.6,3.19,10.21,10.21,0,0,0-.95,4.58,7.57,7.57,0,0,0,.7,3.33,8.47,8.47,0,0,0,1.89,2.55A11.64,11.64,0,0,0,82,48.61a22.71,22.71,0,0,0,3.3,1.32l3.87,1.19a9.15,9.15,0,0,1,2.69,1.39A2.74,2.74,0,0,1,93,54.81a3.33,3.33,0,0,1-.22,1.09,4.12,4.12,0,0,1-.73,1.23,4.49,4.49,0,0,1-1.32,1,4.27,4.27,0,0,1-2,.43,6,6,0,0,1-3.05-.73,13.49,13.49,0,0,1-2.3-1.62c-.68-.59-1.34-1.13-2-1.61a3.33,3.33,0,0,0-2.12-.73,3.79,3.79,0,0,0-3.82,3.83A5.08,5.08,0,0,0,76.6,60.8a11.21,11.21,0,0,0,2.85,2.65,16.44,16.44,0,0,0,4,1.87,14.5,14.5,0,0,0,4.44.7,19,19,0,0,0,5.08-.66,11.83,11.83,0,0,0,4.19-2.07A10.06,10.06,0,0,0,100,59.71a11.9,11.9,0,0,0,1-5.18,9.16,9.16,0,0,0-.7-3.73A8.75,8.75,0,0,0,98.39,48Z"/><path class="cls-1" d="M123.15,43.14a11,11,0,0,0-3.51-2.37,10.6,10.6,0,0,0-4.28-.87,7.5,7.5,0,0,0-2,.25,9.61,9.61,0,0,0-1.93.89V34.75a3.49,3.49,0,0,0-.27-1.37,3.55,3.55,0,0,0-3.28-2.14,3.5,3.5,0,0,0-3.51,3.51V61.87a3.62,3.62,0,0,0,.27,1.39,3.33,3.33,0,0,0,.75,1.14,3.64,3.64,0,0,0,1.12.76,3.45,3.45,0,0,0,1.37.27,3.59,3.59,0,0,0,3.55-3.56V50.93a3.83,3.83,0,0,1,1.16-2.8,3.79,3.79,0,0,1,2.8-1.16,3.87,3.87,0,0,1,2.85,1.16,3.83,3.83,0,0,1,1.16,2.8V61.87a3.62,3.62,0,0,0,.27,1.39,3.33,3.33,0,0,0,.75,1.14,3.64,3.64,0,0,0,1.12.76,3.45,3.45,0,0,0,1.37.27,3.59,3.59,0,0,0,3.55-3.56V50.93a10.48,10.48,0,0,0-.89-4.28A11.43,11.43,0,0,0,123.15,43.14Z"/><path class="cls-1" d="M151.34,43.27a12.52,12.52,0,0,0-4.14-2.68,13.79,13.79,0,0,0-10.11,0,12.45,12.45,0,0,0-7,6.81,14.1,14.1,0,0,0,0,10.53,12.68,12.68,0,0,0,2.8,4.13,12.86,12.86,0,0,0,4.15,2.69,13.92,13.92,0,0,0,10.11,0,12.71,12.71,0,0,0,4.14-2.69,12.53,12.53,0,0,0,2.8-4.13,14,14,0,0,0,0-10.53A12.53,12.53,0,0,0,151.34,43.27Zm-3.48,11.81a6.23,6.23,0,0,1-8.13,3.31,6.13,6.13,0,0,1-3.3-3.31,6.32,6.32,0,0,1,0-4.83,6.13,6.13,0,0,1,3.3-3.31,6.44,6.44,0,0,1,4.83,0,6.13,6.13,0,0,1,3.3,3.31,6.32,6.32,0,0,1,0,4.83Z"/><path class="cls-1" d="M183,47.54a13.57,13.57,0,0,0-2.71-4,12.64,12.64,0,0,0-3.78-2.64,10.22,10.22,0,0,0-4.26-1,10.8,10.8,0,0,0-3,.37,10.68,10.68,0,0,0-2.19.84,7.62,7.62,0,0,0-1.36.89c-.32.27-.53.44-.62.5a3.39,3.39,0,0,0-1.18-1.78,3.26,3.26,0,0,0-2.19-.82,3.35,3.35,0,0,0-2.48,1,3.39,3.39,0,0,0-1,2.48V76.49a3.39,3.39,0,0,0,1,2.48,3.35,3.35,0,0,0,2.48,1,3.54,3.54,0,0,0,2.53-1,3.4,3.4,0,0,0,.75-1.11,3.49,3.49,0,0,0,.27-1.37V64.06c0-.64.1-1,.28-1a1.38,1.38,0,0,1,.68.37,8.87,8.87,0,0,0,1.25.8,11.66,11.66,0,0,0,2,.8,9.57,9.57,0,0,0,2.8.36,10.22,10.22,0,0,0,4.26-1,12.35,12.35,0,0,0,3.78-2.66,14,14,0,0,0,2.71-4,12.25,12.25,0,0,0,1.05-5.1A12.39,12.39,0,0,0,183,47.54ZM176.48,55a5.84,5.84,0,0,1-1.25,1.87,5.74,5.74,0,0,1-1.87,1.25,5.87,5.87,0,0,1-2.3.46,5.68,5.68,0,0,1-2.27-.46,5.93,5.93,0,0,1-3.1-7.73,6,6,0,0,1,1.25-1.87,6,6,0,0,1,1.85-1.25,5.68,5.68,0,0,1,2.27-.46,5.9,5.9,0,0,1,4.17,1.71,6,6,0,0,1,1.25,1.87,6,6,0,0,1,0,4.61Z"/><path class="cls-2" d="M72.12,14.38H62.07a14.37,14.37,0,1,0-28.74,0H22.41A1.43,1.43,0,0,0,21,15.82V32.5H1.44A1.43,1.43,0,0,0,0,33.94V75.29a4.32,4.32,0,0,0,4.31,4.32H69.25a4.32,4.32,0,0,0,4.31-4.32V74.15a1.44,1.44,0,0,0-2.87,0v1.14a1.44,1.44,0,0,1-1.44,1.44H38.83a4.27,4.27,0,0,0,.25-1.44V33.94a1.43,1.43,0,0,0-1.44-1.44H23.85V17.26h9.48v6.61H32a1.49,1.49,0,0,0-1.49,1.2,1.43,1.43,0,0,0,1.41,1.68h5.68a1.49,1.49,0,0,0,1.49-1.2,1.45,1.45,0,0,0-1.42-1.68H36.2V17.26h23v6.61H57.83a1.49,1.49,0,0,0-1.49,1.2,1.44,1.44,0,0,0,1.42,1.68h5.67a1.49,1.49,0,0,0,1.49-1.2,1.44,1.44,0,0,0-1.42-1.68H62.07V17.26h8.62v8a1.44,1.44,0,1,0,2.87,0V15.82A1.43,1.43,0,0,0,72.12,14.38ZM36.2,75.29a1.44,1.44,0,0,1-1.43,1.44H4.31a1.45,1.45,0,0,1-1.44-1.44V70.11H36.2Zm0-39.92V67.24H2.87V35.37Zm0-21a11.5,11.5,0,1,1,23,0Z"/><path class="cls-2" d="M15.85,49.3a1.41,1.41,0,0,0,1.41-1.41V46a1.42,1.42,0,0,0-2.83,0v1.87A1.42,1.42,0,0,0,15.85,49.3Z"/><path class="cls-2" d="M22.45,49.3a1.41,1.41,0,0,0,1.41-1.41V46A1.42,1.42,0,0,0,21,46v1.87A1.42,1.42,0,0,0,22.45,49.3Z"/><path class="cls-2" d="M25,58.09A10.81,10.81,0,0,0,29,54a1.41,1.41,0,1,0-2.48-1.34h0a8,8,0,0,1-13.93.27,1.41,1.41,0,0,0-2.43,1.44A10.89,10.89,0,0,0,25,58.09Z"/><polygon class="cls-2" points="81.14 76.64 83.47 76.64 83.47 75.48 81.14 75.48 81.14 73.86 84.3 73.86 84.3 72.72 79.84 72.72 79.84 79.61 84.54 79.61 84.54 78.44 81.14 78.44 81.14 76.64"/><rect class="cls-2" x="86.82" y="75.59" width="3.15" height="1.16"/><path class="cls-2" d="M94.63,74a2,2,0,0,1,1.17-.34,1.87,1.87,0,0,1,1.09.29,2.65,2.65,0,0,1,.77.76l.92-.81a3.48,3.48,0,0,0-1.09-1,3.33,3.33,0,0,0-1.69-.4,3.53,3.53,0,0,0-1.44.29,3.28,3.28,0,0,0-1.12.78,3.74,3.74,0,0,0-.73,1.16,3.89,3.89,0,0,0-.25,1.42A3.7,3.7,0,0,0,92.71,78a3.29,3.29,0,0,0,1.23,1.28,3.51,3.51,0,0,0,1.81.46A3.32,3.32,0,0,0,97,79.54,3.68,3.68,0,0,0,98,79a3,3,0,0,0,.62-.64l-.91-.79c-.11.11-.24.24-.38.4a2.27,2.27,0,0,1-.59.41,2.41,2.41,0,0,1-1,.17,2,2,0,0,1-1.11-.32,2.14,2.14,0,0,1-.74-.86,2.7,2.7,0,0,1-.26-1.19,3,3,0,0,1,.26-1.23A2.36,2.36,0,0,1,94.63,74Z"/><path class="cls-2" d="M106.35,73.59a3.73,3.73,0,0,0-1.14-.78,3.51,3.51,0,0,0-1.41-.28,3.43,3.43,0,0,0-1.4.28,3.73,3.73,0,0,0-1.14.78,3.49,3.49,0,0,0-.76,1.16,3.45,3.45,0,0,0-.28,1.41,3.65,3.65,0,0,0,1,2.56,3.59,3.59,0,0,0,1.14.79,3.43,3.43,0,0,0,1.4.28,3.51,3.51,0,0,0,1.41-.28,3.59,3.59,0,0,0,1.14-.79,3.59,3.59,0,0,0,1-2.56,3.63,3.63,0,0,0-1-2.57Zm-.6,3.74a2.29,2.29,0,0,1-.77.89,2,2,0,0,1-1.18.34,2,2,0,0,1-1.18-.34,2.29,2.29,0,0,1-.77-.89,2.72,2.72,0,0,1-.27-1.21,2.65,2.65,0,0,1,.27-1.2,2.19,2.19,0,0,1,.77-.88,2.09,2.09,0,0,1,1.18-.33A2.07,2.07,0,0,1,105,74a2.12,2.12,0,0,1,.77.88,2.65,2.65,0,0,1,.27,1.2A2.72,2.72,0,0,1,105.75,77.33Z"/><polygon class="cls-2" points="114.94 72.72 113.06 75.97 111.15 72.72 109.94 72.72 109.61 79.61 110.83 79.61 111.06 74.91 112.72 77.64 113.33 77.64 114.98 74.83 115.2 79.61 116.47 79.61 116.14 72.72 114.94 72.72"/><polygon class="cls-2" points="124.21 72.72 122.33 75.97 120.43 72.72 119.22 72.72 118.89 79.61 120.11 79.61 120.33 74.91 121.99 77.64 122.6 77.64 124.25 74.83 124.48 79.61 125.75 79.61 125.42 72.72 124.21 72.72"/><polygon class="cls-2" points="129.55 76.64 131.87 76.64 131.87 75.48 129.55 75.48 129.55 73.86 132.71 73.86 132.71 72.72 128.25 72.72 128.25 79.61 132.94 79.61 132.94 78.44 129.55 78.44 129.55 76.64"/><path class="cls-2" d="M139.61,75.92a2.26,2.26,0,0,0,.29-1.15,2.1,2.1,0,0,0-.13-.68,2.05,2.05,0,0,0-.41-.67,2,2,0,0,0-.73-.51,2.8,2.8,0,0,0-1.11-.19h-2.28v6.89h1.25V76.89h1l1.4,2.72h1.46l-1.59-2.89A2,2,0,0,0,139.61,75.92Zm-1.31-.39a1,1,0,0,1-.77.28h-1v-2h1a1,1,0,0,1,.76.28,1,1,0,0,1,0,1.43Z"/><path class="cls-2" d="M144.43,74a2,2,0,0,1,1.16-.34,1.9,1.9,0,0,1,1.1.29,2.78,2.78,0,0,1,.77.76l.92-.81a3.59,3.59,0,0,0-1.09-1,3.37,3.37,0,0,0-1.7-.4,3.51,3.51,0,0,0-1.43.29,3.28,3.28,0,0,0-1.12.78,3.57,3.57,0,0,0-.73,1.16,3.9,3.9,0,0,0-.26,1.42A3.7,3.7,0,0,0,142.5,78a3.32,3.32,0,0,0,1.24,1.28,3.51,3.51,0,0,0,1.81.46,3.32,3.32,0,0,0,1.23-.23,3.84,3.84,0,0,0,1-.55,3,3,0,0,0,.62-.64l-.91-.79-.39.4a2.05,2.05,0,0,1-.58.41,2.41,2.41,0,0,1-1,.17,1.93,1.93,0,0,1-1.11-.32,2.07,2.07,0,0,1-.74-.86,2.57,2.57,0,0,1-.26-1.19,2.83,2.83,0,0,1,.26-1.23A2.27,2.27,0,0,1,144.43,74Z"/><polygon class="cls-2" points="151.77 78.44 151.77 76.64 154.1 76.64 154.1 75.48 151.77 75.48 151.77 73.86 154.93 73.86 154.93 72.72 150.47 72.72 150.47 79.61 155.17 79.61 155.17 78.44 151.77 78.44"/></svg>